# xmcd
#
# Track frame offsets:
#	150
#	9008
#	24274
#	36588
#	48953
#	65738
#	80040
#	91569
#	115493
#	130408
#	143526
#	156494
#
# Disc length: 2428 seconds
#
# Revision: 1
# Processed by: cddbd v1.5.1PL2 Copyright (c) Steve Scherf et al.
# Submitted via: audiograbber 1.83.01
#
DISCID=98097a0c
DTITLE=Μάρκος Βαμβακάρης_ - Οι μεγάλες επιτυχίες
DYEAR=1900
DGENRE=
TTITLE0=Καυ'τονε Σταύρο καυ'τονε
TTITLE1=Χτες το βράδυ στο σκοτάδι
TTITLE2=Οι Πρωθυπουργοί
TTITLE3=Ο χαρμάνης
TTITLE4=Τά ματοκλαδά σου λάμπουν
TTITLE5=Η άτακτη
TTITLE6=Τα όμορφα τα γαλανά σου μάτια
TTITLE7=Τα δυο σου χέρια πήρανε
TTITLE8=Καραβοτσακίσματα
TTITLE9='Ομορφη μελαχρινή μου
TTITLE10=Τα δυο σου χέρια πήρανε
TTITLE11=Αντιλαλούν οι φυλακές
EXTD=
EXTT0=
EXTT1=
EXTT2=
EXTT3=
EXTT4=
EXTT5=
EXTT6=
EXTT7=
EXTT8=
EXTT9=
EXTT10=
EXTT11=
PLAYORDER=
